PathFileType	4	(X/Y/Z)	C:/Users/beibeiliu/ov580/test_trc\sequence.40_training_dense_left.trc
DataRate	CameraRate	NumFrames	NumMarkers	Units	OrigDataRate	OrigDataStartFrame	OrigNumFrames
120	120	22	19	mm	120	27	80
Frame#	Time	ThumbCMC			ThumbMCP			ThumbIP			ThumbTip			IndexMCP			IndexPIP			IndexTip			MiddleMCP			MiddlePIP			MiddleTip			RingMCP			RingPIP			RingTip			PinkyMCP			PinkyPIP			PinkyTip			BackHand1			BackHand2			BackHand3	
		X0	Y0	Z0	X1	Y1	Z1	X2	Y2	Z2	X3	Y3	Z3	X4	Y4	Z4	X5	Y5	Z5	X6	Y6	Z6	X7	Y7	Z7	X8	Y8	Z8	X9	Y9	Z9	X10	Y10	Z10	X11	Y11	Z11	X12	Y12	Z12	X13	Y13	Z13	X14	Y14	Z14	X15	Y15	Z15	X16	Y16	Z16	X17	Y17	Z17	X18	Y18	Z18	
26	0.216667	-183.745	36.4447	58.7498	-177.059	55.848	35.8722	-163.371	61.9761	18.566	-148.617	69.662	5.6506	-148.479	25.598	5.32999	-130.226	44.1477	-6.55319	-127.75	70.0123	-1.79929	-123.261	17.1087	10.7168	-115.243	40.2601	-3.0423	-122.471	64.8415	15.3318	-115.352	14.0105	22.2233	-106.706	38.3785	11.303	-119.944	57.5816	28.7468	-106.368	13.0963	45.3324	-101.009	30.7126	27.0708	-110.537	51.8427	33.9203	-136.038	3.46796	63.912	-151.601	0.559312	89.1969	-167.317	6.77142	61.1462	
27	0.225	-183.849	71.74	69.2344	-171.054	94.6723	50.7103	-156.284	99.0646	27.1889	-140.725	103.867	13.2905	-163.505	59.1679	9.643	-143.262	77.0311	-6.04272	-124.887	92.0441	4.52055	-149.835	45.3999	4.63356	-126.406	61.0299	-3.12184	-126.016	84.1105	22.8963	-138.561	31.3986	18.4401	-120.502	53.4636	9.69312	-120.144	69.1817	29.3109	-130.087	21.9178	36.2086	-119.779	36.7379	20.7178	-118.684	59.76	34.2633	-163.788	27.1184	59.209	-171.894	23.6134	84.507	-184.576	39.8413	59.9557	
28	0.233333	-177.123	91.8394	74.8164	-156.28	99.8404	59.0212	-143.929	103.663	36.9374	-131.639	103.979	20.6096	-176.394	79.8633	11.2865	-154.848	84.2284	-2.98135	-124.955	91.9706	3.98037	-175.077	61.566	8.66099	-147.262	68.4793	-6.92599	-130.905	75.6651	15.8448	-167.138	44.2116	11.9889	-144.805	56.8139	2.58634	-133.622	66.6575	23.5191	-163.164	30.1394	28.1619	-143.904	38.5284	12.8061	-131.707	55.7973	27.6305	-185.176	37.7288	56.1196	-190.803	39.9204	86.7768	-198.179	62.4676	69.1599	
29	0.241667	-159.265	89.3021	82.9834	-141.866	89.5536	57.2659	-129.47	95.7248	37.4107	-121.066	92.4316	17.2827	-179.523	89.323	20.4464	-159.486	89.0977	-0.307203	-129.754	84.8549	0.208259	-188.531	70.0765	11.9195	-164.547	69.0084	-6.47454	-139.578	69.0378	16.3918	-187.986	55.3195	16.5563	-166.305	56.1492	1.45724	-145.931	54.4193	18.7181	-185.974	39.6069	28.6905	-169.232	41.0402	8.9346	-148.889	49.1526	22.1827	-194.557	54.0562	67.036	-192.53	50.9703	90.4473	-192.821	77.1672	79.8808	
30	0.25	-147.319	79.3867	82.3438	-128.221	80.5935	56.3176	-123.723	78.1369	37.2641	-119.192	77.0526	13.508	-167.792	99.9649	24.5885	-157.344	90.055	5.43277	-131.777	71.2782	-0.352885	-188.064	82.398	23.278	-170.582	74.3929	-2.10665	-148.16	60.9247	14.2905	-195.545	68.5603	22.9733	-176.153	60.2568	4.18168	-154.665	56.0298	20.6535	-197.475	49.2153	32.0607	-185.485	47.0836	12.7851	-157.05	45.4518	22.2563	-197.141	59.9152	71.4321	-189.129	53.1651	97.5788	-181.322	79.8674	86.9458	
31	0.258333	-137.295	71.1178	87.2969	-120.014	69.6007	58.7383	-119.263	69.8434	38.7935	-112.832	70.1938	15.4013	-160.182	98.7051	30.7006	-147.952	91.2633	10.4199	-130.886	68.9925	2.52125	-180.788	92.1033	26.5058	-166.768	80.2972	4.23549	-145.943	60.9228	19.1141	-193.995	74.1451	32.0681	-180.955	70.33	10.5876	-158.755	54.7153	22.1875	-200.332	55.3661	40.623	-189.006	52.5895	16.0737	-166.572	46.7706	21.6	-191.461	65.6216	79.2521	-182.26	55.1678	103.343	-167.208	81.5518	91.9472	
32	0.266667	-135.483	65.5451	87.4221	-121.29	62.8564	61.3185	-116.162	64.2377	38.1931	-117.806	64.0113	16.5359	-155.104	98.1613	38.7494	-147.703	86.5181	12.3407	-135.7	63.0998	3.88183	-179.777	90.6088	33.186	-169.458	80.9549	6.10193	-149.96	58.9668	20.5325	-191.86	79.3941	36.2723	-183.043	71.4053	12.6087	-163.262	53.3825	22.4803	-202.831	58.4572	41.7851	-189.845	58.4595	20.2467	-167.257	46.0313	27.8738	-191.329	66.469	81.4699	-181.656	54.113	105.631	-168.329	74.1639	94.4982	
33	0.275	-136.225	64.2352	87.8313	-124.428	61.6401	58.7958	-121.995	63.8479	33.1882	-122.354	62.1087	16.194	-162.269	93.2673	36.3487	-154.709	82.974	11.1679	-141.179	59.3794	3.80223	-182.146	90.8781	30.392	-173.821	78.9382	6.28246	-156.137	56.3832	18.7602	-195.665	78.5972	33.6353	-186.606	69.0607	13.0514	-167.509	49.704	24.8418	-208.014	59.6218	38.6075	-193.461	56.1949	20.7649	-173.414	41.8692	25.527	-192.086	67.6354	81.7914	-187.051	56.2071	102.793	-171.976	75.7489	94.2878	
34	0.283333	-146.481	63.753	85.0755	-131.122	60.117	57.4304	-129.686	61.8382	35.0531	-130.504	61.9883	12.7488	-168.945	93.0911	33.7196	-160.354	78.3628	6.78378	-149.697	59.7407	0.844983	-190.548	89.4387	25.4595	-179.681	73.5176	2.94581	-161.496	53.7783	21.5699	-205.345	74.329	30.7881	-188.919	66.425	8.67601	-172.893	47.3397	23.5678	-213.285	54.6506	39.4586	-198.572	52.0636	16.1916	-176.984	42.4529	26.0906	-200.136	65.7838	78.237	-194.879	52.4466	102.619	-181.266	74.2529	90.3663	
35	0.291667	-155.344	67.6466	84.5321	-140.57	65.7493	55.1285	-136.26	65.0635	35.6699	-132.337	62.938	13.6112	-175.064	94.5244	26.5843	-158.66	81.0508	3.62418	-147.284	61.4794	1.22256	-197.913	83.5669	16.4608	-178.574	71.8118	-1.86581	-161.187	54.4879	17.7535	-209.161	68.9738	20.8428	-188.705	60.1846	2.32637	-173.325	47.8022	19.1815	-216.289	51.6011	24.8509	-196.541	46.2902	9.50406	-178.885	38.0592	21.7039	-212.648	64.0473	67.9925	-208.712	53.6339	94.0391	-191.557	73.9568	84.8318	
36	0.3	-170.866	75.7133	84.7796	-149.207	71.229	61.7281	-137.529	69.6117	45.0416	-121.713	68.3888	25.9061	-178.642	88.435	20.0892	-159.663	79.5896	4.62737	-140.48	59.6695	8.72526	-193.437	76.9942	10.0703	-169.518	68.1301	-4.91562	-156.858	49.8986	19.759	-203.389	59.6353	12.5055	-181.127	53.9998	-1.02009	-165.352	45.6352	25.4515	-206.93	43.1488	15.7801	-186.485	40.4888	6.73099	-169.167	35.1517	25.7483	-219.887	55.5361	57.588	-221.614	53.2896	81.6859	-206.564	74.6246	74.6701	
37	0.308333	-186.794	82.0868	83.3455	-156.764	78.6367	72.7272	-139.948	75.4167	64.1879	-118.884	72.7094	52.5455	-168.043	83.9427	19.3018	-143.928	75.0149	16.6823	-126.91	62.3714	33.3366	-180.882	66.8138	10.9273	-151.992	58.0126	6.75719	-145.918	48.1894	36.0306	-188.859	49.7549	11.0908	-159.103	47.4415	10.719	-154.972	40.4776	39.5942	-197.296	32.7146	19.8472	-171.489	29.6404	14.0852	-157.424	36.7533	32.6402	-219.523	56.4598	51.0784	-232.321	50.6806	70.5659	-214.771	79.8951	63.767	
38	0.316667	-197.304	85.3996	85.4447	-164.633	85.3766	91.9858	-142.401	82.5752	87.5456	-124.827	74.9819	83.7964	-159.582	84.0346	34.6777	-131.114	77.3704	42.6011	-121.953	62.6194	63.2662	-162.424	67.3229	23.9345	-134.461	55.4311	31.5816	-137.691	50.0263	64.7671	-168.507	48.9353	22.9565	-143.112	43.7145	31.331	-143.479	43.0174	59.1442	-178.431	30.7187	29.6799	-155.457	25.8742	33.1189	-146.613	33.9959	59.4926	-213.485	51.3374	47.5351	-231.053	55.6513	63.8246	-216.323	80.5942	58.8167	
39	0.325	-202.969	84.5273	86.9465	-176.047	85.9681	99.4478	-148.597	87.6495	102.381	-125.171	82.947	103.754	-148.245	84.393	48.5329	-128.551	81.2405	60.3742	-123.167	70.8685	89.0391	-148.153	63.2983	36.7294	-125.008	59.0455	54.8905	-132.08	54.322	82.0995	-155.814	49.8476	37.1214	-132.277	46.212	52.3578	-138.539	45.5343	80.7761	-162.818	28.9062	41.1978	-142.023	29.3707	52.0182	-141.394	38.4493	76.5932	-205.49	51.3276	47.3385	-226.117	47.5531	59.9616	-214.478	76.7266	59.3515	
40	0.333333	-205.875	84.4304	90.022	-180.206	88.4329	103.912	-157.835	93.604	110.528	-135.45	92.6588	116.72	-146.814	86.914	56.8145	-129.261	87.1808	75.5536	-127.595	76.6365	99.9392	-142.681	67.8655	47.6735	-121.303	67.5242	67.0137	-134.015	66.3026	96.4834	-146.172	49.1289	46.3945	-125.215	53.0864	64.0953	-137.291	54.624	92.2065	-154.79	31.9685	50.1727	-133.015	32.4881	63.1324	-133.295	45.4959	85.823	-193.588	42.1305	47.4821	-219.577	39.4107	58.4141	-211.338	66.7388	56.3976	
41	0.341667	-208.88	77.7453	87.618	-187.38	83.0128	104.725	-161.842	94.387	113.909	-140.846	93.4669	118.126	-150.883	88.2234	59.7534	-131.264	90.2834	76.9756	-130.087	79.9242	102.927	-138.851	67.8393	51.3556	-119.723	71.4506	73.1919	-134.286	63.1834	101.094	-141.45	47.4225	50.1925	-123.155	57.2372	69.2647	-135.076	58.2217	94.7618	-145.302	27.0395	54.4353	-126.847	35.4998	69.0608	-131.161	45.3749	94.2732	-189.062	37.7063	49.9597	-213.592	33.2003	58.5994	-209.781	60.2869	57.1801	
42	0.35	-205.396	72.1733	84.5456	-186.506	85.0491	103.213	-160.765	88.1425	107.954	-142.796	89.3497	114.786	-151.476	86.7156	56.2181	-130.071	87.1587	77.5051	-131.24	79.1777	105.317	-137.513	64.9079	49.7467	-118.74	66.6719	71.1102	-135.946	65.6729	100.364	-140.973	43.6764	49.644	-120.776	49.4539	69.9362	-133.474	54.4575	93.4246	-145.025	23.224	53.8203	-125.518	32.8585	66.3926	-128.014	44.5458	88.5436	-190.647	32.8565	49.9467	-213.118	26.4018	58.5062	-208.442	54.2788	55.4841	
43	0.358333	-206.265	72.3655	83.8162	-181.259	79.4821	97.2766	-160.63	84.7859	103.441	-134.525	84.1824	108.083	-149.162	76.549	49.9226	-129.525	83.0055	66.0767	-125.832	75.1253	92.7581	-144.195	56.2946	42.8005	-119.479	63.0641	63.3787	-131.679	58.3728	90.4206	-142.88	40.0353	43.0803	-123.576	44.0935	58.3099	-132.381	45.6221	87.1752	-149.966	21.7085	47.208	-129.637	25.5059	57.4545	-126.826	36.7952	77.9638	-193.2	32.566	47.107	-217.224	22.8054	57.8134	-211.934	54.7542	55.3167	
44	0.366667	-205.82	71.7245	81.7786	-175.028	80.5148	92.7645	-148.313	82.9419	91.4434	-129.821	75.4815	90.0349	-156.671	74.3155	39.1541	-131.704	73.4329	48.9988	-123.619	66.0415	77.6123	-155.112	54.1337	31.3263	-126.971	51.8143	42.4779	-132.284	53.1444	75.9462	-154.116	33.4718	31.4309	-132.535	36.0573	42.7907	-136.761	38.9631	72.9007	-167.478	17.0605	39.8969	-140.012	19.0921	45.6534	-135.022	33.4054	66.4654	-205.009	33.1284	47.175	-225.958	33.5639	60.5273	-215.554	60.5887	52.6106	
45	0.375	-199.017	82.3684	78.5326	-166.419	80.559	79.0994	-147.306	76.0529	74.6172	-128.355	72.0982	70.5295	-166.106	74.8849	24.2939	-139.251	69.3681	30.0896	-125.779	61.6721	52.1157	-168.823	53.9844	15.7817	-141.238	44.7569	25.0093	-139.07	47.8591	54.1712	-177.123	39.2132	18.8857	-151.871	34.4497	23.0324	-148.652	38.0101	54.6293	-185.092	19.8308	27.4318	-161.926	16.7015	28.5478	-148.287	27.5269	45.1781	-219.662	40.4908	47.3692	-237.084	48.3579	66.5968	-222.444	71.1633	56.6525	
46	0.383333	-193.524	95.6092	73.4962	-163.565	89.1437	68.6882	-147.446	81.0053	56.1973	-132.413	69.1257	43.1108	-182.378	84.3261	14.5751	-158.892	72.6056	9.62226	-139.676	58.6186	26.1165	-191.252	66.4321	6.05302	-162.09	53.0796	6.09174	-154.585	51.2691	34.5414	-203.824	46.0184	13.1087	-175.99	42.5335	7.69189	-164.481	40.3027	34.0122	-209.149	32.3062	22.3583	-190.083	28.3497	14.9914	-170.785	33.5102	30.6003	-229.508	61.8657	50.5464	-239.313	65.2877	76.6415	-224.294	88.7523	61.8182	
47	0.391667	-191	106.592	74.7714	-169.62	94.8878	58.1151	-151.634	91.745	39.5184	-140.733	82.503	26.1704	-198.597	97.7596	10.3394	-179.926	87.5696	1.30511	-156.54	71.484	8.02031	-216.161	82.1545	9.34032	-192.347	65.2092	-4.05093	-172.616	63.6436	21.8595	-225.094	64.1277	12.5051	-203.275	57.7115	2.20656	-183.347	53.226	23.797	-229.708	51.4732	29.0198	-211.784	42.3661	14.2365	-189.441	47.9156	26.1187	-236.061	76.4645	63.4518	-238.651	83.3403	84.7896	-226.775	104.342	70.5869	
